<svg xmlns="http://www.w3.org/2000/svg" version="1.1" xmlns:xlink="http://www.w3.org/1999/xlink" width="500" height="500"><svg width="500" height="500" viewBox="0 0 500 500" fill="none" xmlns="http://www.w3.org/2000/svg">
<rect width="500" height="500" rx="100" fill="black"></rect>
<path d="M216.142 96H283.858C286.51 96 289.054 97.0536 290.929 98.9289L361.071 169.071C362.946 170.946 364 173.49 364 176.142V243.858C364 246.51 362.946 249.054 361.071 250.929L290.929 321.071C289.054 322.946 286.51 324 283.858 324H212V390C212 395.523 207.523 400 202 400H146C140.477 400 136 395.523 136 390V334C136 328.477 140.477 324 146 324H212V258C212 252.477 207.523 248 202 248H146C140.477 248 136 243.523 136 238V176.142C136 173.49 137.054 170.946 138.929 169.071L209.071 98.9289C210.946 97.0536 213.49 96 216.142 96Z" fill="white"></path>
<path d="M245.782 160.628C247.747 157.541 252.253 157.541 254.218 160.628L269.238 184.228C269.631 184.846 270.154 185.369 270.772 185.762L294.372 200.782C297.459 202.747 297.459 207.253 294.372 209.218L270.772 224.238C270.154 224.631 269.631 225.154 269.238 225.772L254.218 249.372C252.253 252.459 247.747 252.459 245.782 249.372L230.762 225.772C230.369 225.154 229.846 224.631 229.228 224.238L205.628 209.218C202.541 207.253 202.541 202.747 205.628 200.782L229.228 185.762C229.846 185.369 230.369 184.846 230.762 184.228L245.782 160.628Z" fill="black"></path>
</svg><style>@media (prefers-color-scheme: light) { :root { filter: none; } }
@media (prefers-color-scheme: dark) { :root { filter: none; } }
</style></svg>