<svg width="887" height="500" viewBox="0 0 887 500" fill="none" xmlns="http://www.w3.org/2000/svg">
<path d="M306.009 317V171.545H366.094C376.984 171.545 386.383 173.676 394.29 177.938C402.244 182.152 408.376 188.046 412.685 195.622C416.993 203.151 419.148 211.91 419.148 221.901C419.148 231.938 416.946 240.722 412.543 248.25C408.187 255.731 401.96 261.531 393.864 265.651C385.767 269.77 376.155 271.83 365.028 271.83H327.955V244.131H358.494C363.797 244.131 368.224 243.207 371.776 241.361C375.374 239.514 378.097 236.934 379.943 233.619C381.79 230.258 382.713 226.351 382.713 221.901C382.713 217.402 381.79 213.52 379.943 210.253C378.097 206.938 375.374 204.382 371.776 202.582C368.177 200.783 363.75 199.884 358.494 199.884H341.165V317H306.009ZM463.207 254.784V317H428.477V171.545H462.071V227.938H463.278C465.741 221.214 469.765 215.958 475.352 212.17C480.987 208.383 487.876 206.489 496.02 206.489C503.69 206.489 510.366 208.193 516.048 211.602C521.73 214.964 526.134 219.723 529.259 225.878C532.431 232.033 533.993 239.23 533.946 247.469V317H499.216V254.287C499.263 248.226 497.748 243.491 494.67 240.082C491.593 236.673 487.26 234.969 481.673 234.969C478.027 234.969 474.808 235.774 472.014 237.384C469.268 238.946 467.114 241.195 465.551 244.131C464.036 247.066 463.255 250.617 463.207 254.784ZM578.379 318.847C571.418 318.847 565.239 317.687 559.842 315.366C554.491 312.999 550.254 309.448 547.129 304.713C544.051 299.931 542.512 293.941 542.512 286.744C542.512 280.684 543.577 275.57 545.708 271.403C547.839 267.237 550.774 263.851 554.515 261.247C558.255 258.643 562.564 256.678 567.441 255.352C572.318 253.979 577.526 253.056 583.066 252.582C589.269 252.014 594.264 251.422 598.052 250.807C601.84 250.144 604.586 249.221 606.29 248.037C608.042 246.806 608.918 245.078 608.918 242.852V242.497C608.918 238.851 607.664 236.034 605.154 234.045C602.645 232.057 599.259 231.062 594.998 231.062C590.405 231.062 586.712 232.057 583.918 234.045C581.125 236.034 579.349 238.78 578.592 242.284L546.56 241.148C547.507 234.519 549.946 228.6 553.876 223.392C557.853 218.136 563.298 214.017 570.211 211.034C577.171 208.004 585.528 206.489 595.282 206.489C602.242 206.489 608.658 207.317 614.529 208.974C620.4 210.584 625.514 212.952 629.87 216.077C634.226 219.154 637.588 222.942 639.955 227.44C642.37 231.938 643.577 237.076 643.577 242.852V317H610.907V301.801H610.055C608.113 305.494 605.628 308.619 602.597 311.176C599.614 313.733 596.087 315.651 592.015 316.929C587.99 318.207 583.445 318.847 578.379 318.847ZM589.103 296.119C592.844 296.119 596.205 295.362 599.188 293.847C602.219 292.331 604.633 290.248 606.433 287.597C608.232 284.898 609.131 281.773 609.131 278.222V267.852C608.137 268.373 606.93 268.847 605.509 269.273C604.136 269.699 602.621 270.101 600.964 270.48C599.307 270.859 597.602 271.19 595.85 271.474C594.098 271.759 592.417 272.019 590.808 272.256C587.54 272.777 584.747 273.581 582.427 274.67C580.154 275.759 578.402 277.18 577.171 278.932C575.987 280.636 575.396 282.672 575.396 285.04C575.396 288.638 576.674 291.384 579.231 293.278C581.835 295.172 585.126 296.119 589.103 296.119ZM752.055 241.219L720.165 242.071C719.834 239.798 718.934 237.786 717.467 236.034C715.999 234.235 714.081 232.838 711.714 231.844C709.394 230.802 706.695 230.281 703.617 230.281C699.593 230.281 696.16 231.086 693.319 232.696C690.525 234.306 689.152 236.484 689.2 239.23C689.152 241.361 690.004 243.207 691.756 244.77C693.556 246.332 696.752 247.587 701.344 248.534L722.367 252.511C733.257 254.595 741.354 258.051 746.657 262.881C752.007 267.71 754.706 274.102 754.754 282.057C754.706 289.538 752.481 296.048 748.077 301.588C743.721 307.128 737.755 311.437 730.18 314.514C722.604 317.545 713.939 319.06 704.185 319.06C688.608 319.06 676.321 315.864 667.325 309.472C658.376 303.032 653.262 294.415 651.984 283.619L686.288 282.767C687.045 286.744 689.01 289.775 692.183 291.858C695.355 293.941 699.403 294.983 704.327 294.983C708.778 294.983 712.4 294.154 715.194 292.497C717.987 290.84 719.408 288.638 719.455 285.892C719.408 283.43 718.319 281.465 716.188 279.997C714.058 278.482 710.719 277.298 706.174 276.446L687.14 272.824C676.202 270.835 668.058 267.166 662.708 261.815C657.358 256.418 654.706 249.552 654.754 241.219C654.706 233.927 656.647 227.701 660.577 222.54C664.507 217.331 670.094 213.354 677.339 210.608C684.583 207.862 693.129 206.489 702.978 206.489C717.751 206.489 729.398 209.59 737.921 215.793C746.444 221.948 751.155 230.423 752.055 241.219ZM814.847 319.06C803.436 319.06 793.587 316.811 785.301 312.312C777.063 307.767 770.718 301.304 766.267 292.923C761.864 284.495 759.662 274.481 759.662 262.881C759.662 251.612 761.887 241.763 766.338 233.335C770.789 224.86 777.062 218.278 785.159 213.591C793.256 208.856 802.796 206.489 813.781 206.489C821.546 206.489 828.649 207.696 835.088 210.111C841.527 212.526 847.091 216.1 851.778 220.835C856.466 225.57 860.112 231.418 862.716 238.378C865.32 245.291 866.622 253.222 866.622 262.17V270.835H771.807V250.665H834.307C834.259 246.972 833.384 243.681 831.679 240.793C829.974 237.904 827.631 235.655 824.648 234.045C821.712 232.388 818.327 231.56 814.491 231.56C810.609 231.56 807.129 232.436 804.051 234.188C800.973 235.892 798.535 238.236 796.736 241.219C794.937 244.154 793.99 247.492 793.895 251.233V271.759C793.895 276.209 794.771 280.116 796.523 283.477C798.275 286.792 800.76 289.372 803.98 291.219C807.2 293.065 811.035 293.989 815.486 293.989C818.563 293.989 821.357 293.562 823.866 292.71C826.376 291.858 828.53 290.603 830.33 288.946C832.129 287.289 833.478 285.253 834.378 282.838L866.267 283.761C864.941 290.911 862.029 297.137 857.531 302.44C853.08 307.696 847.233 311.792 839.989 314.727C832.744 317.616 824.364 319.06 814.847 319.06Z" fill="black"/>
<path d="M106.142 96H173.858C176.51 96 179.054 97.0536 180.929 98.9289L251.071 169.071C252.946 170.946 254 173.49 254 176.142V243.858C254 246.51 252.946 249.054 251.071 250.929L180.929 321.071C179.054 322.946 176.51 324 173.858 324H102V390C102 395.523 97.5228 400 92 400H36C30.4772 400 26 395.523 26 390V334C26 328.477 30.4772 324 36 324H102V258C102 252.477 97.5228 248 92 248H36C30.4772 248 26 243.523 26 238V176.142C26 173.49 27.0536 170.946 28.9289 169.071L99.0711 98.9289C100.946 97.0536 103.49 96 106.142 96Z" fill="black"/>
<path d="M135.782 160.628C137.747 157.541 142.253 157.541 144.218 160.628L159.238 184.228C159.631 184.846 160.154 185.369 160.772 185.762L184.372 200.782C187.459 202.747 187.459 207.253 184.372 209.218L160.772 224.238C160.154 224.631 159.631 225.154 159.238 225.772L144.218 249.372C142.253 252.459 137.747 252.459 135.782 249.372L120.762 225.772C120.369 225.154 119.846 224.631 119.228 224.238L95.628 209.218C92.5408 207.253 92.5408 202.747 95.6281 200.782L119.228 185.762C119.846 185.369 120.369 184.846 120.762 184.228L135.782 160.628Z" fill="white"/>
</svg>
