<svg width="887" height="500" viewBox="0 0 887 500" fill="none" xmlns="http://www.w3.org/2000/svg">
<path d="M312.009 315V169.545H372.094C382.984 169.545 392.383 171.676 400.29 175.938C408.244 180.152 414.376 186.046 418.685 193.622C422.993 201.151 425.148 209.91 425.148 219.901C425.148 229.938 422.946 238.722 418.543 246.25C414.187 253.731 407.96 259.531 399.864 263.651C391.767 267.77 382.155 269.83 371.028 269.83H333.955V242.131H364.494C369.797 242.131 374.224 241.207 377.776 239.361C381.374 237.514 384.097 234.934 385.943 231.619C387.79 228.258 388.713 224.351 388.713 219.901C388.713 215.402 387.79 211.52 385.943 208.253C384.097 204.938 381.374 202.382 377.776 200.582C374.177 198.783 369.75 197.884 364.494 197.884H347.165V315H312.009ZM469.207 252.784V315H434.477V169.545H468.071V225.938H469.278C471.741 219.214 475.765 213.958 481.352 210.17C486.987 206.383 493.876 204.489 502.02 204.489C509.69 204.489 516.366 206.193 522.048 209.602C527.73 212.964 532.134 217.723 535.259 223.878C538.431 230.033 539.993 237.23 539.946 245.469V315H505.216V252.287C505.263 246.226 503.748 241.491 500.67 238.082C497.593 234.673 493.26 232.969 487.673 232.969C484.027 232.969 480.808 233.774 478.014 235.384C475.268 236.946 473.114 239.195 471.551 242.131C470.036 245.066 469.255 248.617 469.207 252.784ZM584.379 316.847C577.418 316.847 571.239 315.687 565.842 313.366C560.491 310.999 556.254 307.448 553.129 302.713C550.051 297.931 548.512 291.941 548.512 284.744C548.512 278.684 549.577 273.57 551.708 269.403C553.839 265.237 556.774 261.851 560.515 259.247C564.255 256.643 568.564 254.678 573.441 253.352C578.318 251.979 583.526 251.056 589.066 250.582C595.269 250.014 600.264 249.422 604.052 248.807C607.84 248.144 610.586 247.221 612.29 246.037C614.042 244.806 614.918 243.078 614.918 240.852V240.497C614.918 236.851 613.664 234.034 611.154 232.045C608.645 230.057 605.259 229.062 600.998 229.062C596.405 229.062 592.712 230.057 589.918 232.045C587.125 234.034 585.349 236.78 584.592 240.284L552.56 239.148C553.507 232.519 555.946 226.6 559.876 221.392C563.853 216.136 569.298 212.017 576.211 209.034C583.171 206.004 591.528 204.489 601.282 204.489C608.242 204.489 614.658 205.317 620.529 206.974C626.4 208.584 631.514 210.952 635.87 214.077C640.226 217.154 643.588 220.942 645.955 225.44C648.37 229.938 649.577 235.076 649.577 240.852V315H616.907V299.801H616.055C614.113 303.494 611.628 306.619 608.597 309.176C605.614 311.733 602.087 313.651 598.015 314.929C593.99 316.207 589.445 316.847 584.379 316.847ZM595.103 294.119C598.844 294.119 602.205 293.362 605.188 291.847C608.219 290.331 610.633 288.248 612.433 285.597C614.232 282.898 615.131 279.773 615.131 276.222V265.852C614.137 266.373 612.93 266.847 611.509 267.273C610.136 267.699 608.621 268.101 606.964 268.48C605.307 268.859 603.602 269.19 601.85 269.474C600.098 269.759 598.417 270.019 596.808 270.256C593.54 270.777 590.747 271.581 588.427 272.67C586.154 273.759 584.402 275.18 583.171 276.932C581.987 278.636 581.396 280.672 581.396 283.04C581.396 286.638 582.674 289.384 585.231 291.278C587.835 293.172 591.126 294.119 595.103 294.119ZM758.055 239.219L726.165 240.071C725.834 237.798 724.934 235.786 723.467 234.034C721.999 232.235 720.081 230.838 717.714 229.844C715.394 228.802 712.695 228.281 709.617 228.281C705.593 228.281 702.16 229.086 699.319 230.696C696.525 232.306 695.152 234.484 695.2 237.23C695.152 239.361 696.004 241.207 697.756 242.77C699.556 244.332 702.752 245.587 707.344 246.534L728.367 250.511C739.257 252.595 747.354 256.051 752.657 260.881C758.007 265.71 760.706 272.102 760.754 280.057C760.706 287.538 758.481 294.048 754.077 299.588C749.721 305.128 743.755 309.437 736.18 312.514C728.604 315.545 719.939 317.06 710.185 317.06C694.608 317.06 682.321 313.864 673.325 307.472C664.376 301.032 659.262 292.415 657.984 281.619L692.288 280.767C693.045 284.744 695.01 287.775 698.183 289.858C701.355 291.941 705.403 292.983 710.327 292.983C714.778 292.983 718.4 292.154 721.194 290.497C723.987 288.84 725.408 286.638 725.455 283.892C725.408 281.43 724.319 279.465 722.188 277.997C720.058 276.482 716.719 275.298 712.174 274.446L693.14 270.824C682.202 268.835 674.058 265.166 668.708 259.815C663.358 254.418 660.706 247.552 660.754 239.219C660.706 231.927 662.647 225.701 666.577 220.54C670.507 215.331 676.094 211.354 683.339 208.608C690.583 205.862 699.129 204.489 708.978 204.489C723.751 204.489 735.398 207.59 743.921 213.793C752.444 219.948 757.155 228.423 758.055 239.219ZM820.847 317.06C809.436 317.06 799.587 314.811 791.301 310.312C783.063 305.767 776.718 299.304 772.267 290.923C767.864 282.495 765.662 272.481 765.662 260.881C765.662 249.612 767.887 239.763 772.338 231.335C776.789 222.86 783.062 216.278 791.159 211.591C799.256 206.856 808.796 204.489 819.781 204.489C827.546 204.489 834.649 205.696 841.088 208.111C847.527 210.526 853.091 214.1 857.778 218.835C862.466 223.57 866.112 229.418 868.716 236.378C871.32 243.291 872.622 251.222 872.622 260.17V268.835H777.807V248.665H840.307C840.259 244.972 839.384 241.681 837.679 238.793C835.974 235.904 833.631 233.655 830.648 232.045C827.712 230.388 824.327 229.56 820.491 229.56C816.609 229.56 813.129 230.436 810.051 232.188C806.973 233.892 804.535 236.236 802.736 239.219C800.937 242.154 799.99 245.492 799.895 249.233V269.759C799.895 274.209 800.771 278.116 802.523 281.477C804.275 284.792 806.76 287.372 809.98 289.219C813.2 291.065 817.035 291.989 821.486 291.989C824.563 291.989 827.357 291.562 829.866 290.71C832.376 289.858 834.53 288.603 836.33 286.946C838.129 285.289 839.478 283.253 840.378 280.838L872.267 281.761C870.941 288.911 868.029 295.137 863.531 300.44C859.08 305.696 853.233 309.792 845.989 312.727C838.744 315.616 830.364 317.06 820.847 317.06Z" fill="black"/>
<path d="M104.309 104H169.191C171.843 104 174.387 105.054 176.262 106.929L243.571 174.238C245.446 176.113 246.5 178.657 246.5 181.309V246.191C246.5 248.843 245.446 251.387 243.571 253.262L176.262 320.571C174.387 322.446 171.843 323.5 169.191 323.5H100.167V386.667C100.167 392.19 95.6895 396.667 90.1667 396.667H37C31.4771 396.667 27 392.19 27 386.667V333.5C27 327.977 31.4772 323.5 37 323.5H100.167V260.333C100.167 254.81 95.6895 250.333 90.1667 250.333H37C31.4771 250.333 27 245.856 27 240.333V181.309C27 178.657 28.0536 176.113 29.9289 174.238L97.2377 106.929C99.1131 105.054 101.657 104 104.309 104Z" fill="black"/>
<path d="M132.532 169.161C134.497 166.074 139.003 166.074 140.968 169.161L156.072 192.894C156.465 193.511 156.989 194.035 157.606 194.428L181.339 209.532C184.426 211.497 184.426 216.003 181.339 217.968L157.606 233.072C156.989 233.465 156.465 233.989 156.072 234.606L140.968 258.339C139.003 261.426 134.497 261.426 132.532 258.339L117.428 234.606C117.035 233.989 116.511 233.465 115.894 233.072L92.1614 217.968C89.0741 216.003 89.0741 211.497 92.1614 209.532L115.894 194.428C116.511 194.035 117.035 193.511 117.428 192.894L132.532 169.161Z" fill="white"/>
</svg>
