<svg width="887" height="500" viewBox="0 0 887 500" fill="none" xmlns="http://www.w3.org/2000/svg">
<path d="M100.309 104H165.191C167.843 104 170.387 105.054 172.262 106.929L239.571 174.238C241.446 176.113 242.5 178.657 242.5 181.309V246.191C242.5 248.843 241.446 251.387 239.571 253.262L172.262 320.571C170.387 322.446 167.843 323.5 165.191 323.5H96.1667V386.667C96.1667 392.19 91.6895 396.667 86.1667 396.667H33C27.4771 396.667 23 392.19 23 386.667V333.5C23 327.977 27.4772 323.5 33 323.5H96.1667V260.333C96.1667 254.81 91.6895 250.333 86.1667 250.333H33C27.4771 250.333 23 245.856 23 240.333V181.309C23 178.657 24.0536 176.113 25.9289 174.238L93.2377 106.929C95.1131 105.054 97.6566 104 100.309 104Z" fill="white"/>
<path d="M128.532 169.161C130.497 166.074 135.003 166.074 136.968 169.161L152.072 192.894C152.465 193.511 152.989 194.035 153.606 194.428L177.339 209.532C180.426 211.497 180.426 216.003 177.339 217.968L153.606 233.072C152.989 233.465 152.465 233.989 152.072 234.606L136.968 258.339C135.003 261.426 130.497 261.426 128.532 258.339L113.428 234.606C113.035 233.989 112.511 233.465 111.894 233.072L88.1614 217.968C85.0741 216.003 85.0741 211.497 88.1614 209.532L111.894 194.428C112.511 194.035 113.035 193.511 113.428 192.894L128.532 169.161Z" fill="black"/>
<path d="M312.009 310V164.545H372.094C382.984 164.545 392.383 166.676 400.29 170.938C408.244 175.152 414.376 181.046 418.685 188.622C422.993 196.151 425.148 204.91 425.148 214.901C425.148 224.938 422.946 233.722 418.543 241.25C414.187 248.731 407.96 254.531 399.864 258.651C391.767 262.77 382.155 264.83 371.028 264.83H333.955V237.131H364.494C369.797 237.131 374.224 236.207 377.776 234.361C381.374 232.514 384.097 229.934 385.943 226.619C387.79 223.258 388.713 219.351 388.713 214.901C388.713 210.402 387.79 206.52 385.943 203.253C384.097 199.938 381.374 197.382 377.776 195.582C374.177 193.783 369.75 192.884 364.494 192.884H347.165V310H312.009ZM469.207 247.784V310H434.477V164.545H468.071V220.938H469.278C471.741 214.214 475.765 208.958 481.352 205.17C486.987 201.383 493.876 199.489 502.02 199.489C509.69 199.489 516.366 201.193 522.048 204.602C527.73 207.964 532.134 212.723 535.259 218.878C538.431 225.033 539.993 232.23 539.946 240.469V310H505.216V247.287C505.263 241.226 503.748 236.491 500.67 233.082C497.593 229.673 493.26 227.969 487.673 227.969C484.027 227.969 480.808 228.774 478.014 230.384C475.268 231.946 473.114 234.195 471.551 237.131C470.036 240.066 469.255 243.617 469.207 247.784ZM584.379 311.847C577.418 311.847 571.239 310.687 565.842 308.366C560.491 305.999 556.254 302.448 553.129 297.713C550.051 292.931 548.512 286.941 548.512 279.744C548.512 273.684 549.577 268.57 551.708 264.403C553.839 260.237 556.774 256.851 560.515 254.247C564.255 251.643 568.564 249.678 573.441 248.352C578.318 246.979 583.526 246.056 589.066 245.582C595.269 245.014 600.264 244.422 604.052 243.807C607.84 243.144 610.586 242.221 612.29 241.037C614.042 239.806 614.918 238.078 614.918 235.852V235.497C614.918 231.851 613.664 229.034 611.154 227.045C608.645 225.057 605.259 224.062 600.998 224.062C596.405 224.062 592.712 225.057 589.918 227.045C587.125 229.034 585.349 231.78 584.592 235.284L552.56 234.148C553.507 227.519 555.946 221.6 559.876 216.392C563.853 211.136 569.298 207.017 576.211 204.034C583.171 201.004 591.528 199.489 601.282 199.489C608.242 199.489 614.658 200.317 620.529 201.974C626.4 203.584 631.514 205.952 635.87 209.077C640.226 212.154 643.588 215.942 645.955 220.44C648.37 224.938 649.577 230.076 649.577 235.852V310H616.907V294.801H616.055C614.113 298.494 611.628 301.619 608.597 304.176C605.614 306.733 602.087 308.651 598.015 309.929C593.99 311.207 589.445 311.847 584.379 311.847ZM595.103 289.119C598.844 289.119 602.205 288.362 605.188 286.847C608.219 285.331 610.633 283.248 612.433 280.597C614.232 277.898 615.131 274.773 615.131 271.222V260.852C614.137 261.373 612.93 261.847 611.509 262.273C610.136 262.699 608.621 263.101 606.964 263.48C605.307 263.859 603.602 264.19 601.85 264.474C600.098 264.759 598.417 265.019 596.808 265.256C593.54 265.777 590.747 266.581 588.427 267.67C586.154 268.759 584.402 270.18 583.171 271.932C581.987 273.636 581.396 275.672 581.396 278.04C581.396 281.638 582.674 284.384 585.231 286.278C587.835 288.172 591.126 289.119 595.103 289.119ZM758.055 234.219L726.165 235.071C725.834 232.798 724.934 230.786 723.467 229.034C721.999 227.235 720.081 225.838 717.714 224.844C715.394 223.802 712.695 223.281 709.617 223.281C705.593 223.281 702.16 224.086 699.319 225.696C696.525 227.306 695.152 229.484 695.2 232.23C695.152 234.361 696.004 236.207 697.756 237.77C699.556 239.332 702.752 240.587 707.344 241.534L728.367 245.511C739.257 247.595 747.354 251.051 752.657 255.881C758.007 260.71 760.706 267.102 760.754 275.057C760.706 282.538 758.481 289.048 754.077 294.588C749.721 300.128 743.755 304.437 736.18 307.514C728.604 310.545 719.939 312.06 710.185 312.06C694.608 312.06 682.321 308.864 673.325 302.472C664.376 296.032 659.262 287.415 657.984 276.619L692.288 275.767C693.045 279.744 695.01 282.775 698.183 284.858C701.355 286.941 705.403 287.983 710.327 287.983C714.778 287.983 718.4 287.154 721.194 285.497C723.987 283.84 725.408 281.638 725.455 278.892C725.408 276.43 724.319 274.465 722.188 272.997C720.058 271.482 716.719 270.298 712.174 269.446L693.14 265.824C682.202 263.835 674.058 260.166 668.708 254.815C663.358 249.418 660.706 242.552 660.754 234.219C660.706 226.927 662.647 220.701 666.577 215.54C670.507 210.331 676.094 206.354 683.339 203.608C690.583 200.862 699.129 199.489 708.978 199.489C723.751 199.489 735.398 202.59 743.921 208.793C752.444 214.948 757.155 223.423 758.055 234.219ZM820.847 312.06C809.436 312.06 799.587 309.811 791.301 305.312C783.063 300.767 776.718 294.304 772.267 285.923C767.864 277.495 765.662 267.481 765.662 255.881C765.662 244.612 767.887 234.763 772.338 226.335C776.789 217.86 783.062 211.278 791.159 206.591C799.256 201.856 808.796 199.489 819.781 199.489C827.546 199.489 834.649 200.696 841.088 203.111C847.527 205.526 853.091 209.1 857.778 213.835C862.466 218.57 866.112 224.418 868.716 231.378C871.32 238.291 872.622 246.222 872.622 255.17V263.835H777.807V243.665H840.307C840.259 239.972 839.384 236.681 837.679 233.793C835.974 230.904 833.631 228.655 830.648 227.045C827.712 225.388 824.327 224.56 820.491 224.56C816.609 224.56 813.129 225.436 810.051 227.188C806.973 228.892 804.535 231.236 802.736 234.219C800.937 237.154 799.99 240.492 799.895 244.233V264.759C799.895 269.209 800.771 273.116 802.523 276.477C804.275 279.792 806.76 282.372 809.98 284.219C813.2 286.065 817.035 286.989 821.486 286.989C824.563 286.989 827.357 286.562 829.866 285.71C832.376 284.858 834.53 283.603 836.33 281.946C838.129 280.289 839.478 278.253 840.378 275.838L872.267 276.761C870.941 283.911 868.029 290.137 863.531 295.44C859.08 300.696 853.233 304.792 845.989 307.727C838.744 310.616 830.364 312.06 820.847 312.06Z" fill="white"/>
</svg>
