<svg width="750" height="500" viewBox="0 0 750 500" fill="none" xmlns="http://www.w3.org/2000/svg">
<rect width="750" height="500" fill="black"/>
<path d="M233.142 200H249.858C252.51 200 255.054 201.054 256.929 202.929L276.071 222.071C277.946 223.946 279 226.49 279 229.142V245.858C279 248.51 277.946 251.054 276.071 252.929L256.929 272.071C255.054 273.946 252.51 275 249.858 275H229V290C229 295.523 224.523 300 219 300H214C208.477 300 204 295.523 204 290V285C204 279.477 208.477 275 214 275H229V260C229 254.477 224.523 250 219 250H214C208.477 250 204 245.523 204 240V229.142C204 226.49 205.054 223.946 206.929 222.071L226.071 202.929C227.946 201.054 230.49 200 233.142 200Z" fill="white"/>
<path d="M237.282 226.628C239.247 223.541 243.753 223.541 245.718 226.628L247.709 229.757C248.102 230.374 248.626 230.898 249.243 231.291L252.372 233.282C255.459 235.247 255.459 239.753 252.372 241.718L249.243 243.709C248.626 244.102 248.102 244.626 247.709 245.243L245.718 248.372C243.753 251.459 239.247 251.459 237.282 248.372L235.291 245.243C234.898 244.626 234.374 244.102 233.757 243.709L230.628 241.718C227.541 239.753 227.541 235.247 230.628 233.282L233.757 231.291C234.374 230.898 234.898 230.374 235.291 229.757L237.282 226.628Z" fill="black"/>
<path d="M304.403 279V220.818H328.438C332.794 220.818 336.553 221.67 339.716 223.375C342.898 225.061 345.35 227.419 347.074 230.449C348.797 233.46 349.659 236.964 349.659 240.96C349.659 244.975 348.778 248.489 347.017 251.5C345.275 254.492 342.784 256.812 339.545 258.46C336.307 260.108 332.462 260.932 328.011 260.932H313.182V249.852H325.398C327.519 249.852 329.29 249.483 330.71 248.744C332.15 248.006 333.239 246.973 333.977 245.648C334.716 244.303 335.085 242.741 335.085 240.96C335.085 239.161 334.716 237.608 333.977 236.301C333.239 234.975 332.15 233.953 330.71 233.233C329.271 232.513 327.5 232.153 325.398 232.153H318.466V279H304.403ZM370.483 254.114V279H356.591V220.818H370.028V243.375H370.511C371.496 240.686 373.106 238.583 375.341 237.068C377.595 235.553 380.35 234.795 383.608 234.795C386.676 234.795 389.347 235.477 391.619 236.841C393.892 238.186 395.653 240.089 396.903 242.551C398.172 245.013 398.797 247.892 398.778 251.188V279H384.886V253.915C384.905 251.491 384.299 249.597 383.068 248.233C381.837 246.869 380.104 246.188 377.869 246.188C376.411 246.188 375.123 246.509 374.006 247.153C372.907 247.778 372.045 248.678 371.42 249.852C370.814 251.027 370.502 252.447 370.483 254.114ZM419.751 279.739C416.967 279.739 414.496 279.275 412.337 278.347C410.196 277.4 408.501 275.979 407.251 274.085C406.02 272.172 405.405 269.777 405.405 266.898C405.405 264.473 405.831 262.428 406.683 260.761C407.536 259.095 408.71 257.741 410.206 256.699C411.702 255.657 413.426 254.871 415.376 254.341C417.327 253.792 419.411 253.422 421.626 253.233C424.107 253.006 426.106 252.769 427.621 252.523C429.136 252.258 430.234 251.888 430.916 251.415C431.617 250.922 431.967 250.231 431.967 249.341V249.199C431.967 247.741 431.465 246.614 430.462 245.818C429.458 245.023 428.104 244.625 426.399 244.625C424.562 244.625 423.085 245.023 421.967 245.818C420.85 246.614 420.14 247.712 419.837 249.114L407.024 248.659C407.403 246.008 408.378 243.64 409.95 241.557C411.541 239.455 413.719 237.807 416.484 236.614C419.268 235.402 422.611 234.795 426.513 234.795C429.297 234.795 431.863 235.127 434.212 235.79C436.56 236.434 438.606 237.381 440.348 238.631C442.09 239.862 443.435 241.377 444.382 243.176C445.348 244.975 445.831 247.03 445.831 249.341V279H432.763V272.92H432.422C431.645 274.398 430.651 275.648 429.439 276.67C428.246 277.693 426.835 278.46 425.206 278.972C423.596 279.483 421.778 279.739 419.751 279.739ZM424.041 270.648C425.537 270.648 426.882 270.345 428.075 269.739C429.287 269.133 430.253 268.299 430.973 267.239C431.693 266.159 432.053 264.909 432.053 263.489V259.341C431.655 259.549 431.172 259.739 430.604 259.909C430.054 260.08 429.448 260.241 428.786 260.392C428.123 260.544 427.441 260.676 426.74 260.79C426.039 260.903 425.367 261.008 424.723 261.102C423.416 261.311 422.299 261.633 421.371 262.068C420.462 262.504 419.761 263.072 419.268 263.773C418.795 264.455 418.558 265.269 418.558 266.216C418.558 267.655 419.07 268.754 420.092 269.511C421.134 270.269 422.45 270.648 424.041 270.648ZM492.422 248.688L479.666 249.028C479.534 248.119 479.174 247.314 478.587 246.614C478 245.894 477.232 245.335 476.286 244.938C475.357 244.521 474.278 244.312 473.047 244.312C471.437 244.312 470.064 244.634 468.928 245.278C467.81 245.922 467.261 246.794 467.28 247.892C467.261 248.744 467.602 249.483 468.303 250.108C469.022 250.733 470.301 251.235 472.138 251.614L480.547 253.205C484.903 254.038 488.142 255.42 490.263 257.352C492.403 259.284 493.482 261.841 493.501 265.023C493.482 268.015 492.592 270.619 490.831 272.835C489.089 275.051 486.702 276.775 483.672 278.006C480.642 279.218 477.176 279.824 473.274 279.824C467.043 279.824 462.128 278.545 458.53 275.989C454.95 273.413 452.905 269.966 452.393 265.648L466.115 265.307C466.418 266.898 467.204 268.11 468.473 268.943C469.742 269.777 471.361 270.193 473.331 270.193C475.111 270.193 476.56 269.862 477.678 269.199C478.795 268.536 479.363 267.655 479.382 266.557C479.363 265.572 478.928 264.786 478.075 264.199C477.223 263.593 475.888 263.119 474.07 262.778L466.456 261.33C462.081 260.534 458.823 259.066 456.683 256.926C454.543 254.767 453.482 252.021 453.501 248.688C453.482 245.771 454.259 243.28 455.831 241.216C457.403 239.133 459.638 237.542 462.536 236.443C465.433 235.345 468.852 234.795 472.791 234.795C478.7 234.795 483.359 236.036 486.768 238.517C490.178 240.979 492.062 244.369 492.422 248.688ZM520.739 279.824C516.174 279.824 512.235 278.924 508.92 277.125C505.625 275.307 503.087 272.722 501.307 269.369C499.545 265.998 498.665 261.992 498.665 257.352C498.665 252.845 499.555 248.905 501.335 245.534C503.116 242.144 505.625 239.511 508.864 237.636C512.102 235.742 515.919 234.795 520.312 234.795C523.419 234.795 526.259 235.278 528.835 236.244C531.411 237.21 533.636 238.64 535.511 240.534C537.386 242.428 538.845 244.767 539.886 247.551C540.928 250.316 541.449 253.489 541.449 257.068V260.534H503.523V252.466H528.523C528.504 250.989 528.153 249.672 527.472 248.517C526.79 247.362 525.852 246.462 524.659 245.818C523.485 245.155 522.131 244.824 520.597 244.824C519.044 244.824 517.652 245.174 516.42 245.875C515.189 246.557 514.214 247.494 513.494 248.688C512.775 249.862 512.396 251.197 512.358 252.693V260.903C512.358 262.684 512.708 264.246 513.409 265.591C514.11 266.917 515.104 267.949 516.392 268.688C517.68 269.426 519.214 269.795 520.994 269.795C522.225 269.795 523.343 269.625 524.347 269.284C525.35 268.943 526.212 268.441 526.932 267.778C527.652 267.116 528.191 266.301 528.551 265.335L541.307 265.705C540.777 268.564 539.612 271.055 537.812 273.176C536.032 275.278 533.693 276.917 530.795 278.091C527.898 279.246 524.545 279.824 520.739 279.824Z" fill="white"/>
</svg>
