<svg width="500" height="500" viewBox="0 0 500 500" fill="none" xmlns="http://www.w3.org/2000/svg">
<rect width="500" height="500" rx="100" fill="black"/>
<path d="M224.142 130H275.858C278.51 130 281.054 131.054 282.929 132.929L337.071 187.071C338.946 188.946 340 191.49 340 194.142V245.858C340 248.51 338.946 251.054 337.071 252.929L282.929 307.071C281.054 308.946 278.51 310 275.858 310H220V360C220 365.523 215.523 370 210 370H170C164.477 370 160 365.523 160 360V320C160 314.477 164.477 310 170 310H220V260C220 254.477 215.523 250 210 250H170C164.477 250 160 245.523 160 240V194.142C160 191.49 161.054 188.946 162.929 187.071L217.071 132.929C218.946 131.054 221.49 130 224.142 130Z" fill="white"/>
<path d="M245.782 184.628C247.747 181.541 252.253 181.541 254.218 184.628L265.738 202.729C266.131 203.346 266.654 203.869 267.271 204.262L285.372 215.782C288.459 217.747 288.459 222.253 285.372 224.218L267.271 235.738C266.654 236.131 266.131 236.654 265.738 237.271L254.218 255.372C252.253 258.459 247.747 258.459 245.782 255.372L234.262 237.271C233.869 236.654 233.346 236.131 232.729 235.738L214.628 224.218C211.541 222.253 211.541 217.747 214.628 215.782L232.729 204.262C233.346 203.869 233.869 203.346 234.262 202.729L245.782 184.628Z" fill="black"/>
</svg>
