<svg width="750" height="500" viewBox="0 0 750 500" fill="none" xmlns="http://www.w3.org/2000/svg">
<path d="M223.908 309V178.091H277.984C287.786 178.091 296.244 180.009 303.361 183.844C310.52 187.636 316.038 192.942 319.916 199.76C323.794 206.536 325.733 214.419 325.733 223.411C325.733 232.445 323.751 240.349 319.788 247.125C315.868 253.858 310.264 259.078 302.977 262.786C295.69 266.493 287.04 268.347 277.026 268.347H243.659V243.418H271.145C275.918 243.418 279.902 242.587 283.098 240.925C286.337 239.263 288.787 236.94 290.449 233.957C292.111 230.932 292.942 227.416 292.942 223.411C292.942 219.362 292.111 215.868 290.449 212.928C288.787 209.945 286.337 207.643 283.098 206.024C279.859 204.405 275.875 203.595 271.145 203.595H255.548V309H223.908ZM365.387 253.006V309H334.13V178.091H364.364V228.844H365.451C367.666 222.793 371.289 218.062 376.317 214.653C381.388 211.244 387.588 209.54 394.918 209.54C401.821 209.54 407.83 211.074 412.943 214.142C418.057 217.168 422.02 221.45 424.833 226.99C427.688 232.53 429.094 239.007 429.051 246.422V309H397.794V252.558C397.837 247.104 396.473 242.842 393.703 239.774C390.934 236.706 387.034 235.172 382.006 235.172C378.725 235.172 375.827 235.896 373.313 237.345C370.841 238.751 368.902 240.776 367.496 243.418C366.132 246.06 365.429 249.256 365.387 253.006ZM469.041 310.662C462.776 310.662 457.215 309.618 452.357 307.53C447.542 305.399 443.728 302.203 440.916 297.942C438.146 293.638 436.761 288.247 436.761 281.77C436.761 276.315 437.72 271.713 439.637 267.963C441.555 264.213 444.197 261.166 447.563 258.822C450.93 256.479 454.808 254.71 459.197 253.517C463.586 252.281 468.274 251.45 473.259 251.024C478.842 250.513 483.338 249.98 486.747 249.426C490.156 248.83 492.627 247.999 494.161 246.933C495.738 245.825 496.526 244.27 496.526 242.267V241.947C496.526 238.666 495.397 236.131 493.139 234.341C490.88 232.551 487.833 231.656 483.998 231.656C479.865 231.656 476.541 232.551 474.026 234.341C471.512 236.131 469.914 238.602 469.232 241.756L440.404 240.733C441.257 234.767 443.451 229.44 446.988 224.753C450.568 220.023 455.468 216.315 461.69 213.631C467.954 210.903 475.475 209.54 484.254 209.54C490.518 209.54 496.292 210.286 501.576 211.777C506.86 213.226 511.463 215.357 515.383 218.169C519.303 220.939 522.329 224.348 524.46 228.396C526.633 232.445 527.72 237.068 527.72 242.267V309H498.316V295.321H497.549C495.802 298.645 493.565 301.457 490.838 303.759C488.153 306.06 484.978 307.786 481.313 308.936C477.691 310.087 473.6 310.662 469.041 310.662ZM478.693 290.207C482.059 290.207 485.085 289.526 487.769 288.162C490.497 286.798 492.67 284.923 494.289 282.537C495.909 280.108 496.718 277.295 496.718 274.099V264.767C495.823 265.236 494.737 265.662 493.458 266.045C492.223 266.429 490.859 266.791 489.367 267.132C487.876 267.473 486.342 267.771 484.765 268.027C483.188 268.283 481.676 268.517 480.227 268.73C477.286 269.199 474.772 269.923 472.684 270.903C470.639 271.884 469.062 273.162 467.954 274.739C466.889 276.273 466.356 278.105 466.356 280.236C466.356 283.474 467.507 285.946 469.808 287.651C472.151 289.355 475.113 290.207 478.693 290.207ZM625.349 240.797L596.649 241.564C596.351 239.518 595.541 237.707 594.22 236.131C592.899 234.511 591.173 233.254 589.042 232.359C586.954 231.422 584.525 230.953 581.755 230.953C578.133 230.953 575.044 231.678 572.487 233.126C569.973 234.575 568.737 236.536 568.78 239.007C568.737 240.925 569.504 242.587 571.081 243.993C572.7 245.399 575.576 246.528 579.71 247.381L598.63 250.96C608.432 252.835 615.719 255.946 620.491 260.293C625.307 264.639 627.736 270.392 627.778 277.551C627.736 284.284 625.733 290.143 621.77 295.129C617.849 300.115 612.48 303.993 605.662 306.763C598.844 309.49 591.045 310.854 582.267 310.854C568.247 310.854 557.189 307.977 549.092 302.224C541.038 296.429 536.436 288.673 535.285 278.957L566.159 278.19C566.841 281.77 568.609 284.497 571.464 286.372C574.319 288.247 577.963 289.185 582.395 289.185C586.4 289.185 589.66 288.439 592.174 286.947C594.689 285.456 595.967 283.474 596.01 281.003C595.967 278.787 594.987 277.018 593.069 275.697C591.152 274.334 588.148 273.268 584.057 272.501L566.926 269.241C557.082 267.452 549.753 264.149 544.937 259.334C540.122 254.476 537.736 248.297 537.778 240.797C537.736 234.234 539.483 228.631 543.02 223.986C546.557 219.298 551.585 215.719 558.105 213.247C564.625 210.776 572.317 209.54 581.18 209.54C594.476 209.54 604.959 212.331 612.629 217.913C620.3 223.453 624.54 231.081 625.349 240.797ZM681.862 310.854C671.592 310.854 662.728 308.83 655.271 304.781C647.856 300.69 642.146 294.874 638.14 287.331C634.177 279.746 632.196 270.733 632.196 260.293C632.196 250.151 634.199 241.287 638.204 233.702C642.21 226.074 647.856 220.151 655.143 215.932C662.43 211.67 671.017 209.54 680.903 209.54C687.892 209.54 694.284 210.626 700.079 212.8C705.875 214.973 710.882 218.19 715.101 222.452C719.319 226.713 722.601 231.976 724.944 238.24C727.288 244.462 728.46 251.599 728.46 259.653V267.452H643.126V249.298H699.376C699.334 245.974 698.545 243.013 697.011 240.413C695.477 237.814 693.368 235.79 690.683 234.341C688.041 232.849 684.994 232.104 681.542 232.104C678.048 232.104 674.916 232.892 672.146 234.469C669.376 236.003 667.182 238.112 665.562 240.797C663.943 243.439 663.091 246.443 663.005 249.81V268.283C663.005 272.288 663.794 275.804 665.37 278.83C666.947 281.812 669.184 284.135 672.082 285.797C674.98 287.459 678.432 288.29 682.437 288.29C685.207 288.29 687.721 287.906 689.98 287.139C692.238 286.372 694.177 285.243 695.797 283.751C697.416 282.26 698.63 280.428 699.44 278.254L728.14 279.085C726.947 285.52 724.326 291.124 720.278 295.896C716.272 300.626 711.01 304.312 704.49 306.955C697.97 309.554 690.427 310.854 681.862 310.854Z" fill="black"/>
<path d="M75.8088 139H124.191C126.843 139 129.387 140.054 131.262 141.929L182.071 192.738C183.946 194.613 185 197.157 185 199.809V248.191C185 250.843 183.946 253.387 182.071 255.262L131.262 306.071C129.387 307.946 126.843 309 124.191 309H71.6667V355.667C71.6667 361.189 67.1895 365.667 61.6667 365.667H25C19.4772 365.667 15 361.19 15 355.667V319C15 313.477 19.4772 309 25 309H71.6667V262.333C71.6667 256.81 67.1895 252.333 61.6667 252.333H25C19.4772 252.333 15 247.856 15 242.333V199.809C15 197.157 16.0536 194.613 17.9289 192.738L68.7377 141.929C70.6131 140.054 73.1566 139 75.8088 139Z" fill="black"/>
<path d="M95.7818 190.961C97.7466 187.874 102.253 187.874 104.218 190.961L114.83 207.636C115.223 208.253 115.747 208.777 116.364 209.17L133.039 219.782C136.126 221.747 136.126 226.253 133.039 228.218L116.364 238.83C115.747 239.223 115.223 239.747 114.83 240.364L104.218 257.039C102.253 260.126 97.7466 260.126 95.7818 257.039L85.1697 240.364C84.7769 239.747 84.2534 239.223 83.6361 238.83L66.9614 228.218C63.8741 226.253 63.8741 221.747 66.9614 219.782L83.6361 209.17C84.2534 208.777 84.7769 208.253 85.1697 207.636L95.7818 190.961Z" fill="white"/>
</svg>
